<?xml version="1.0" encoding="UTF-8" standalone="no"?>
<!-- Created with Inkscape (http://www.inkscape.org/) -->

<svg
   xmlns:dc="http://purl.org/dc/elements/1.1/"
   xmlns:cc="http://creativecommons.org/ns#"
   xmlns:rdf="http://www.w3.org/1999/02/22-rdf-syntax-ns#"
   xmlns:svg="http://www.w3.org/2000/svg"
   xmlns="http://www.w3.org/2000/svg"
   xmlns:sodipodi="http://sodipodi.sourceforge.net/DTD/sodipodi-0.dtd"
   xmlns:inkscape="http://www.inkscape.org/namespaces/inkscape"
   width="40mm"
   height="15mm"
   viewBox="0 0 40 15"
   version="1.1"
   id="svg31"
   inkscape:version="0.92.3 (2405546, 2018-03-11)"
   sodipodi:docname="alpha_icon.svg">
  <defs
     id="defs25" />
  <sodipodi:namedview
     id="base"
     pagecolor="#ffffff"
     bordercolor="#666666"
     borderopacity="1.0"
     inkscape:pageopacity="0.0"
     inkscape:pageshadow="2"
     inkscape:zoom="2.8"
     inkscape:cx="71.570037"
     inkscape:cy="103.51706"
     inkscape:document-units="mm"
     inkscape:current-layer="layer1"
     showgrid="false"
     inkscape:window-width="1920"
     inkscape:window-height="1017"
     inkscape:window-x="-8"
     inkscape:window-y="-8"
     inkscape:window-maximized="1" />
  <metadata
     id="metadata28">
    <rdf:RDF>
      <cc:Work
         rdf:about="">
        <dc:format>image/svg+xml</dc:format>
        <dc:type
           rdf:resource="http://purl.org/dc/dcmitype/StillImage" />
        <dc:title></dc:title>
      </cc:Work>
    </rdf:RDF>
  </metadata>
  <g
     inkscape:label="Layer 1"
     inkscape:groupmode="layer"
     id="layer1"
     transform="translate(0,-282)">
    <path
       style="fill:#000000;stroke-width:0.26458332"
       d="m 7.8902904,283.81786 c -2.8792339,0 -5.1970988,2.63424 -5.1970988,5.90609 0,3.27186 2.3178649,5.9061 5.1970988,5.9061 H 31.608224 c 2.879233,0 5.197097,-2.63424 5.197097,-5.9061 0,-3.27185 -2.317864,-5.90609 -5.197097,-5.90609 z m -0.9379273,2.47375 H 8.741918 l 2.156975,6.86469 H 9.3894238 l -0.366386,-1.25057 H 6.6753774 l -0.3705198,1.25057 h -1.509469 z m 4.7144409,0 h 1.501718 v 5.52679 h 2.636015 v 1.3379 h -4.137733 z m 5.085478,0 h 2.491838 c 0.740965,0 1.309107,0.19464 1.704288,0.58394 0.397782,0.38623 0.596863,0.9379 0.596863,1.6552 0,0.72035 -0.199081,1.27519 -0.596863,1.66449 -0.395181,0.38624 -0.963323,0.5793 -1.704288,0.5793 h -0.990121 v 2.38176 h -1.501717 z m 5.849772,0 h 1.501717 v 2.61637 h 2.214852 v -2.61637 h 1.501201 v 6.86469 h -1.501201 v -2.91041 h -2.214852 v 2.91041 h -1.501717 z m 8.154542,0 h 1.790071 l 2.156457,6.86469 h -1.508951 l -0.366903,-1.25057 h -2.347661 l -0.37052,1.25057 h -1.50895 z m -12.502597,1.28261 v 1.91771 h 0.830441 c 0.291186,0 0.516301,-0.083 0.674894,-0.24857 0.158592,-0.16859 0.237711,-0.40608 0.237711,-0.71261 0,-0.30654 -0.07912,-0.54244 -0.237711,-0.70797 -0.158593,-0.16553 -0.383708,-0.24856 -0.674894,-0.24856 z m -10.4050498,0.32659 -0.7994343,2.7311 h 1.5952515 z m 23.8047488,0 -0.799433,2.7311 h 1.594733 z"
       id="rect8"
       inkscape:connector-curvature="0" />
  </g>
</svg>
