<svg xmlns="http://www.w3.org/2000/svg" viewBox="238.316 383 26.284 31.6">
  <defs>
    <style>
      .cls-1, .cls-3 {
        fill: #fff;
      }

      .cls-2 {
        fill: gold;
      }

      .cls-3 {
        stroke: rgba(255,255,255,0.27);
      }

      .cls-4 {
        fill: #6c797a;
      }

      .cls-5 {
        fill: #afb6bb;
      }

      .cls-6 {
        fill: #e7eced;
      }

      .cls-7 {
        fill: #ebba16;
      }
    </style>
  </defs>
  <g id="Group_7" data-name="Group 7" transform="translate(-58.5 102.5)">
    <path id="Path_10" data-name="Path 10" class="cls-1" d="M24.18,12.09A12.09,12.09,0,0,1,0,12.09C0,5.413,24.18,5.413,24.18,12.09Z" transform="translate(296.816 287.92)"/>
    <circle id="Ellipse_5" data-name="Ellipse 5" class="cls-2" cx="8.636" cy="8.636" r="8.636" transform="translate(300.27 291.374)"/>
    <path id="Path_11" data-name="Path 11" class="cls-3" d="M4.5,2.5a2.308,2.308,0,0,1-.3,1.049A1.876,1.876,0,0,1,2.5,4.5a2,2,0,0,1-2-2C.5,1.4,4.5,1.4,4.5,2.5Z" transform="translate(312.5 294.5)"/>
    <path id="Path_12" data-name="Path 12" class="cls-3" d="M4.5,2.5a2.308,2.308,0,0,1-.3,1.049A1.876,1.876,0,0,1,2.5,4.5a2,2,0,0,1-2-2C.5,1.4,4.5,1.4,4.5,2.5Z" transform="translate(305.5 294.5)"/>
    <path id="Path_13" data-name="Path 13" class="cls-1" d="M7.2,1c0,.552-.615,1.7-3.1,1.7S1.4,1.552,1.4,1,7.2.448,7.2,1Z" transform="translate(306.5 302.5)"/>
    <g id="thunder_1_" data-name="thunder (1)" transform="translate(307.5 280.5)">
      <path id="Path_14" data-name="Path 14" class="cls-4" d="M6.2,2.214A1.5,1.5,0,0,0,4.682.786a1.12,1.12,0,0,0-.65.131A1.469,1.469,0,0,0,2.6,0,1.436,1.436,0,0,0,1.171,1.441a1.462,1.462,0,0,0,.04.333,1.7,1.7,0,0,0,.431,3.334c.07-.027,4.741-.784,4.814-.8l.514-1.842A1.279,1.279,0,0,0,6.2,2.214Z" transform="translate(0 0)"/>
      <path id="Path_15" data-name="Path 15" class="cls-5" d="M210.593,29.1a2.051,2.051,0,0,0,.061-.491,2.16,2.16,0,0,0-2.194-2.124,2.258,2.258,0,0,0-2.193,1.352,1.772,1.772,0,0,0-1-.193,2.178,2.178,0,0,0-2.214,1.793l-.022,4.579h6.822a2.552,2.552,0,0,0,2.592-2.51A2.523,2.523,0,0,0,210.593,29.1Z" transform="translate(-196.849 -25.676)"/>
      <path id="Path_16" data-name="Path 16" class="cls-6" d="M9.414,82.676a2.151,2.151,0,0,0-2.235-2.069,1.773,1.773,0,0,0-1,.193,2.258,2.258,0,0,0-2.193-1.352,2.16,2.16,0,0,0-2.193,2.124,2.067,2.067,0,0,0,.061.491A2.523,2.523,0,0,0,0,84.469a2.552,2.552,0,0,0,2.592,2.51h6.78a2.152,2.152,0,1,0,.042-4.3Z" transform="translate(0 -77.027)"/>
      <path id="Path_17" data-name="Path 17" class="cls-7" d="M110.234,233.551h-1.614l1.076-4.034-3.766,4.572h1.614l-1.076,4.034Z" transform="translate(-99.703 -223.524)"/>
    </g>
  </g>
</svg>
